<svg width="230" height="50" viewBox="0 0 230 50" fill="none" xmlns="http://www.w3.org/2000/svg">
<path fill-rule="evenodd" clip-rule="evenodd" d="M20.2412 5.03727C14.9677 -0.853682 7.15086 -1.70172 2.81592 3.14995C-1.52128 7.9991 -0.762776 16.7386 4.50173 22.6321C5.9062 24.2024 7.52449 25.4027 9.23281 26.2633C9.79324 22.622 11.4003 19.1217 13.8401 16.2479C13.0321 15.9258 12.2038 15.6541 11.3395 15.3898C6.2213 13.8196 3.67795 9.04593 3.08376 3.4494C3.57521 4.11013 4.02266 4.80317 4.4688 5.49417C5.3344 6.83484 6.19503 8.16783 7.36243 9.24222C9.17844 10.914 11.1718 11.5594 13.3526 12.2654C13.4368 12.2926 13.5213 12.32 13.606 12.3475C14.6391 12.6822 15.5372 13.1779 16.3609 13.7567C18.5262 11.9876 20.9682 10.8099 23.4891 10.3243C22.7216 8.41431 21.6457 6.60752 20.2412 5.03727ZM11.324 27.6629C11.6594 24.0166 13.2394 20.4508 15.7715 17.6199C21.045 11.7289 28.8619 10.8784 33.1968 15.7325C37.534 20.5817 36.7778 29.3212 31.5065 35.2147C28.9744 38.0457 25.7851 39.8122 22.5238 40.1897C22.0894 40.2375 21.6595 40.2627 21.2386 40.2627C18.4342 40.2627 15.9291 39.163 14.0835 37.0995C11.9588 34.7265 10.9774 31.3746 11.324 27.6629ZM19.0374 30.6546C20.766 29.18 22.6363 28.5962 24.671 27.9746C29.7892 26.4044 32.3303 21.6307 32.9268 16.0342C32.4395 16.6912 31.9953 17.3796 31.5524 18.0658C30.6842 19.4113 29.8211 20.7488 28.6481 21.827C26.8265 23.5015 24.8285 24.1479 22.638 24.8567L22.4045 24.9323C17.3966 26.5579 14.9208 31.2913 14.3491 36.7997C14.8424 36.1371 15.2943 35.4491 15.7438 34.7648L15.7439 34.7648C16.7198 33.2792 17.6845 31.8106 19.0374 30.6546Z" fill="#F9C06A"/>
<path d="M72.875 30.4375C71.5104 33.0833 69.6354 34.4062 67.25 34.4062C64.9062 34.4062 63.0208 33.2604 61.5938 30.9688C60.0312 28.4688 59.25 25.1094 59.25 20.8906C59.25 16.8594 59.9844 13.5573 61.4531 10.9844C62.8698 8.50521 64.7344 7.26562 67.0469 7.26562C69.2969 7.26562 71.1667 8.51562 72.6562 11.0156L70.5781 13.6094C70.1094 12.7656 69.6875 12.1406 69.3125 11.7344C68.6667 11.0156 67.9375 10.6562 67.125 10.6562C66.1667 10.6562 65.3125 11.375 64.5625 12.8125C63.5417 14.8125 63.0312 17.5365 63.0312 20.9844C63.0312 23.9844 63.4896 26.4219 64.4062 28.2969C64.8333 29.1615 65.2396 29.7969 65.625 30.2031C66.0833 30.6823 66.6458 30.9219 67.3125 30.9219C68.6667 30.9219 69.7969 29.8438 70.7031 27.6875L72.875 30.4375ZM82.9543 7.26562C85.1314 7.26562 86.8606 8.44271 88.1418 10.7969C89.4647 13.2344 90.1262 16.5625 90.1262 20.7812C90.1262 24.7708 89.5429 27.9792 88.3762 30.4062C87.0845 33.0729 85.2616 34.4062 82.9075 34.4062C80.5845 34.4062 78.7825 33.0885 77.5012 30.4531C76.3137 28.0052 75.72 24.776 75.72 20.7656C75.72 16.599 76.3658 13.3021 77.6575 10.875C78.9387 8.46875 80.7043 7.26562 82.9543 7.26562ZM82.9075 10.5312C81.9595 10.5312 81.1887 11.3385 80.595 12.9531C79.9075 14.7865 79.5637 17.3958 79.5637 20.7812C79.5637 24.2083 79.9075 26.8385 80.595 28.6719C81.1783 30.2344 81.9543 31.0156 82.9231 31.0156C83.871 31.0156 84.6366 30.2604 85.22 28.75C85.9283 26.9167 86.2825 24.2708 86.2825 20.8125C86.2825 16.9479 85.8502 14.1094 84.9856 12.2969C84.4231 11.1198 83.7304 10.5312 82.9075 10.5312ZM94.6899 7.875H106.018V11.2969H98.3305V19.0156H105.127V22.3438H98.3305V33.7969H94.6899V7.875ZM111.613 7.875H122.941V11.2969H115.254V19.0156H122.05V22.3438H115.254V33.7969H111.613V7.875ZM128.161 7.875H139.458V11.2344H131.77V18.8281H138.536V22.1562H131.77V30.3438H139.739V33.7969H128.161V7.875ZM145.084 7.875H156.381V11.2344H148.694V18.8281H155.459V22.1562H148.694V30.3438H156.662V33.7969H145.084V7.875ZM161.242 7.875H166.96C168.794 7.875 170.283 8.36458 171.429 9.34375C171.825 9.6875 172.205 10.151 172.57 10.7344C173.33 11.9427 173.71 13.349 173.71 14.9531C173.71 16.9635 173.2 18.5938 172.179 19.8438C171.429 20.7604 170.403 21.3385 169.101 21.5781V21.6719C170.247 22.2448 171.137 23.2969 171.773 24.8281C172.502 26.5469 173.575 29.5365 174.992 33.7969H170.742C169.294 28.8073 168.367 25.875 167.96 25C167.356 23.6562 166.554 22.9844 165.554 22.9844H164.882V33.7969H161.242V7.875ZM164.882 11.0156V19.9062H166.554C167.554 19.9062 168.367 19.4948 168.992 18.6719C169.596 17.8906 169.898 16.75 169.898 15.25C169.898 13.8958 169.617 12.8385 169.054 12.0781C168.544 11.3698 167.773 11.0156 166.742 11.0156H164.882ZM184.493 7.26562C186.67 7.26562 188.399 8.44271 189.68 10.7969C191.003 13.2344 191.665 16.5625 191.665 20.7812C191.665 24.7708 191.081 27.9792 189.915 30.4062C188.623 33.0729 186.8 34.4062 184.446 34.4062C182.123 34.4062 180.321 33.0885 179.04 30.4531C177.852 28.0052 177.258 24.776 177.258 20.7656C177.258 16.599 177.904 13.3021 179.196 10.875C180.477 8.46875 182.243 7.26562 184.493 7.26562ZM184.446 10.5312C183.498 10.5312 182.727 11.3385 182.133 12.9531C181.446 14.7865 181.102 17.3958 181.102 20.7812C181.102 24.2083 181.446 26.8385 182.133 28.6719C182.717 30.2344 183.493 31.0156 184.462 31.0156C185.409 31.0156 186.175 30.2604 186.758 28.75C187.467 26.9167 187.821 24.2708 187.821 20.8125C187.821 16.9479 187.389 14.1094 186.524 12.2969C185.962 11.1198 185.269 10.5312 184.446 10.5312ZM201.416 7.26562C203.593 7.26562 205.322 8.44271 206.603 10.7969C207.926 13.2344 208.588 16.5625 208.588 20.7812C208.588 24.7708 208.004 27.9792 206.838 30.4062C205.546 33.0729 203.723 34.4062 201.369 34.4062C199.046 34.4062 197.244 33.0885 195.963 30.4531C194.775 28.0052 194.181 24.776 194.181 20.7656C194.181 16.599 194.827 13.3021 196.119 10.875C197.4 8.46875 199.166 7.26562 201.416 7.26562ZM201.369 10.5312C200.421 10.5312 199.65 11.3385 199.056 12.9531C198.369 14.7865 198.025 17.3958 198.025 20.7812C198.025 24.2083 198.369 26.8385 199.056 28.6719C199.64 30.2344 200.416 31.0156 201.385 31.0156C202.333 31.0156 203.098 30.2604 203.681 28.75C204.39 26.9167 204.744 24.2708 204.744 20.8125C204.744 16.9479 204.312 14.1094 203.447 12.2969C202.885 11.1198 202.192 10.5312 201.369 10.5312ZM211.105 7.875H214.948L217.417 19.2344C217.698 20.5677 217.974 22.6094 218.245 25.3594H218.37C218.61 22.724 218.886 20.6823 219.198 19.2344L221.667 7.875H225.511V33.7969H222.339L222.495 23.0469C222.526 21.224 222.849 17.4479 223.464 11.7188H223.339C223.068 13.625 222.724 15.6198 222.308 17.7031L219.948 29.4531H216.667L214.308 17.7031C213.87 15.5365 213.526 13.5417 213.276 11.7188H213.151C213.776 17.8646 214.099 21.6406 214.12 23.0469L214.276 33.7969H211.105V7.875Z" fill="white"/>
</svg>
