<svg width="99" height="69" viewBox="0 0 99 69" fill="none" xmlns="http://www.w3.org/2000/svg">
<path fill-rule="evenodd" clip-rule="evenodd" d="M6.81051 0.217285H12.4766V5.90088H6.81051V0.217285ZM0.2 26.7407H5.86611V32.4243H0.2V26.7407ZM22.6163 5.98618H18.1065V0.217334H66.3045V48.501C63.3526 51.044 61.4459 54.7738 61.3238 58.9478H37.0979C36.8723 51.2455 30.5681 45.048 22.8457 45.048C15.1232 45.048 8.81897 51.2453 8.59345 58.9478H0.199951V39.9387H16.2543C18.3053 39.9387 19.9739 38.2631 19.9739 36.2032C19.9739 34.1432 18.3053 32.4672 16.2543 32.4672H11.5825V26.6985H36.0282C38.0792 26.6985 39.7479 25.0225 39.7479 22.9626C39.7479 20.9026 38.0792 19.2266 36.0282 19.2266H0.199951V13.4579H22.8457C24.8966 13.4579 26.5651 11.7821 26.5651 9.72215C26.5651 7.73197 24.7197 5.98618 22.6163 5.98618ZM67.2489 59.895C67.2489 55.1942 71.0617 51.3696 75.748 51.3696C80.4344 51.3696 84.2472 55.1942 84.2472 59.895C84.2472 64.5959 80.4344 68.4204 75.748 68.4204C71.0617 68.4204 67.2489 64.5959 67.2489 59.895ZM72.8834 62.7688H78.6131V57.0213H72.8834V62.7688ZM71.9708 6.84811H83.4928L96.5239 26.7407H71.9708V6.84811ZM71.9708 32.4243V45.4706C73.1111 45.1805 74.3051 45.0257 75.535 45.0257C83.3365 45.0257 89.7053 51.2331 89.9332 58.9477H98.4126V32.4243H71.9708ZM22.8643 51.3696C18.1779 51.3696 14.3651 55.1942 14.3651 59.895C14.3651 64.5959 18.1779 68.4204 22.8643 68.4204C27.5507 68.4204 31.3635 64.5959 31.3635 59.895C31.3635 55.1942 27.5507 51.3696 22.8643 51.3696ZM25.7292 62.7688H19.9995V57.0213H25.7292V62.7688Z" fill="#FDD6BA"/>
</svg>
