<svg width="98" height="99" viewBox="0 0 98 99" fill="none" xmlns="http://www.w3.org/2000/svg">
<path fill-rule="evenodd" clip-rule="evenodd" d="M79.6936 18.0869C89.5963 28.1292 95.7763 40.7864 97.0958 53.7198C98.4457 66.8926 94.6081 78.7887 86.3035 87.2043C79.0823 94.5273 69.2765 98.4251 58.3086 98.4251C56.6561 98.4251 54.9795 98.3331 53.2786 98.1551C40.525 96.8169 28.0439 90.5497 18.1413 80.5074C-2.47507 59.6003 -5.44101 28.6018 11.5314 11.39C28.4918 -5.82781 59.0713 -2.81389 79.6936 18.0869ZM44.8834 54.8246C52.8369 57.0344 60.161 59.103 66.9161 64.3329C72.2132 68.4353 75.9861 73.6487 79.8014 78.9207C81.5578 81.3478 83.3232 83.7872 85.2505 86.1363C83.023 66.5858 73.3322 49.7914 53.7449 44.0275C53.4395 43.9378 53.1351 43.8485 52.8316 43.7595C44.2677 41.2485 36.4473 38.9554 29.3213 33.0154C24.7384 29.1925 21.3645 24.4475 17.9713 19.6752C16.2375 17.2368 14.4986 14.7913 12.5909 12.4581C14.9152 32.3154 24.8602 49.2571 44.8834 54.8246Z" fill="#FDD6BA"/>
</svg>
