<svg width="99" height="99" viewBox="0 0 99 99" fill="none" xmlns="http://www.w3.org/2000/svg">
<path fill-rule="evenodd" clip-rule="evenodd" d="M49.5985 32.924C49.7341 32.9413 49.8714 32.9501 50.0098 32.9501C50.7937 32.9501 51.566 32.9408 52.3266 32.9224V47.2728V53.4111H90.4597H91.4903C95.4479 53.4111 98.7047 50.1783 98.7047 46.2498V36.0193C98.7047 32.0908 95.4479 28.858 91.4903 28.858H74.9421C86.4946 24.368 91.8844 17.0269 91.8844 11.2169C91.8844 6.14174 87.8602 0.216694 76.5122 0.212646C61.8653 0.212646 53.5702 10.5997 49.598 20.1149C45.6255 10.5992 37.3314 0.212646 22.6889 0.212646C11.3408 0.212646 7.3125 6.13843 7.3125 11.2142C7.3125 17.0252 12.7026 24.3675 24.256 28.858H7.70656C3.74896 28.858 0.492188 32.0908 0.492188 36.0193V46.2498C0.492188 50.1783 3.74896 53.4111 7.70656 53.4111H8.73719H46.8703V47.2728V32.9224C47.6309 32.9408 48.4031 32.9501 49.1871 32.9501C49.3255 32.9501 49.4628 32.9413 49.5985 32.924ZM53.9294 26.7903C55.8179 20.068 61.5128 6.28739 76.5123 6.28739C80.9091 6.28739 85.6033 7.57843 85.6033 11.2128C85.6033 13.6532 83.4802 17.4778 77.5215 20.8976C73.2252 23.3624 65.7631 26.2561 53.9294 26.7903ZM46.8703 60.2314H8.67656V91.3895C8.67656 95.249 11.9385 98.4251 15.9024 98.4251H46.8703V60.2314ZM90.5203 91.3895V60.2314H52.3266V98.4251H83.2945C87.2584 98.4251 90.5203 95.249 90.5203 91.3895ZM22.6888 6.28406C18.292 6.28406 13.5936 7.57931 13.5936 11.2141C13.5936 16.383 22.9442 25.8019 45.2634 26.7936C43.379 20.0664 37.6841 6.28406 22.6888 6.28406Z" fill="#FDD6BA"/>
</svg>
